STARTFONT 2.3
FONT -FontForge-Indie Flower-Book-R-Normal--16-160-72-72-P-73-ISO10646-1
SIZE 16 72 72  2
FONTBOUNDINGBOX 20 24 -2 -8
COMMENT "Generated by fontforge, http://fontforge.sourceforge.net"
COMMENT "Copyright (c) 2010, Kimberly Geswein (kimberlygeswein.com)"
STARTPROPERTIES 40
FOUNDRY "FontForge"
FAMILY_NAME "Indie Flower"
WEIGHT_NAME "Book"
SLANT "R"
SETWIDTH_NAME "Normal"
ADD_STYLE_NAME ""
PIXEL_SIZE 16
POINT_SIZE 160
RESOLUTION_X 72
RESOLUTION_Y 72
SPACING "P"
AVERAGE_WIDTH 73
CHARSET_REGISTRY "ISO10646"
CHARSET_ENCODING "1"
FONTNAME_REGISTRY ""
CHARSET_COLLECTIONS "ISO8859-2 ISO8859-9 ISO8859-4 ISO10646-1"
BITS_PER_PIXEL 2
FONT_NAME "IndieFlower"
FACE_NAME "Indie Flower"
COPYRIGHT "Copyright (c) 2010, Kimberly Geswein (kimberlygeswein.com)"
FONT_VERSION "1.001 2010"
FONT_ASCENT 13
FONT_DESCENT 3
UNDERLINE_POSITION -2
UNDERLINE_THICKNESS 1
X_HEIGHT 5
CAP_HEIGHT 8
RAW_ASCENT 799
RAW_DESCENT 200
NORM_SPACE 6
RELATIVE_WEIGHT 40
RELATIVE_SETWIDTH 50
SUPERSCRIPT_X 0
SUPERSCRIPT_Y 7
SUPERSCRIPT_SIZE 10
SUBSCRIPT_X 0
SUBSCRIPT_Y 2
SUBSCRIPT_SIZE 10
AVG_LOWERCASE_WIDTH 71
AVG_UPPERCASE_WIDTH 85
ENDPROPERTIES
CHARS 356
STARTCHAR space
ENCODING 32
SWIDTH 375 0
DWIDTH 6 0
BBX 1 1 0 0
BITMAP
00
ENDCHAR
STARTCHAR exclam
ENCODING 33
SWIDTH 149 0
DWIDTH 2 0
BBX 2 13 0 0
BITMAP
50
50
50
50
50
50
50
60
50
00
00
60
B0
ENDCHAR
STARTCHAR quotedbl
ENCODING 34
SWIDTH 234 0
DWIDTH 4 0
BBX 4 5 0 8
BITMAP
04
88
99
59
29
ENDCHAR
STARTCHAR numbersign
ENCODING 35
SWIDTH 768 0
DWIDTH 12 0
BBX 12 8 0 0
BITMAP
001100
006200
007BE8
6EB640
5036FE
1ABA80
002140
000140
ENDCHAR
STARTCHAR dollar
ENCODING 36
SWIDTH 581 0
DWIDTH 9 0
BBX 9 15 0 0
BITMAP
001000
005800
006800
02EE00
098800
068800
01D800
00EC00
00E600
00A080
9160C0
267080
07F240
02F900
016000
ENDCHAR
STARTCHAR percent
ENCODING 37
SWIDTH 636 0
DWIDTH 10 0
BBX 10 10 0 0
BITMAP
000040
280200
A60900
821400
6A2000
149280
018960
034860
061890
080A40
ENDCHAR
STARTCHAR ampersand
ENCODING 38
SWIDTH 457 0
DWIDTH 7 0
BBX 7 11 0 0
BITMAP
0B00
0B40
0B00
0B00
0914
0D64
2A50
22C0
91C0
8650
7810
ENDCHAR
STARTCHAR quotesingle
ENCODING 39
SWIDTH 102 0
DWIDTH 2 0
BBX 2 4 0 8
BITMAP
40
90
90
50
ENDCHAR
STARTCHAR parenleft
ENCODING 40
SWIDTH 421 0
DWIDTH 7 0
BBX 7 11 0 -1
BITMAP
0010
01A4
0600
1800
2000
6000
9000
9000
6000
2900
0640
ENDCHAR
STARTCHAR parenright
ENCODING 41
SWIDTH 290 0
DWIDTH 5 0
BBX 5 11 0 -1
BITMAP
1000
2C00
0A00
0300
0240
0240
0200
0600
1C00
7400
9000
ENDCHAR
STARTCHAR asterisk
ENCODING 42
SWIDTH 412 0
DWIDTH 7 0
BBX 6 6 0 4
BITMAP
0020
2A90
1FD0
6FC0
26D0
1190
ENDCHAR
STARTCHAR plus
ENCODING 43
SWIDTH 459 0
DWIDTH 7 0
BBX 7 7 0 0
BITMAP
0500
0600
0300
6FF8
5340
0240
0200
ENDCHAR
STARTCHAR comma
ENCODING 44
SWIDTH 130 0
DWIDTH 2 0
BBX 2 5 0 -3
BITMAP
90
60
90
90
80
ENDCHAR
STARTCHAR hyphen
ENCODING 45
SWIDTH 375 0
DWIDTH 6 0
BBX 6 1 0 4
BITMAP
7ED0
ENDCHAR
STARTCHAR period
ENCODING 46
SWIDTH 204 0
DWIDTH 3 0
BBX 3 3 0 0
BITMAP
24
78
34
ENDCHAR
STARTCHAR slash
ENCODING 47
SWIDTH 309 0
DWIDTH 5 0
BBX 5 12 0 0
BITMAP
0080
0180
0240
0300
0600
0900
0C00
1800
2400
3000
9000
8000
ENDCHAR
STARTCHAR zero
ENCODING 48
SWIDTH 430 0
DWIDTH 7 0
BBX 7 7 0 0
BITMAP
0B80
24A0
5024
8014
9024
2070
0BD0
ENDCHAR
STARTCHAR one
ENCODING 49
SWIDTH 318 0
DWIDTH 5 0
BBX 5 10 0 0
BITMAP
0040
0080
0180
0740
0F40
3740
9300
0300
0200
0200
ENDCHAR
STARTCHAR two
ENCODING 50
SWIDTH 497 0
DWIDTH 8 0
BBX 8 9 0 0
BITMAP
00A0
0264
0108
000C
000C
0018
5020
BEE0
2AAD
ENDCHAR
STARTCHAR three
ENCODING 51
SWIDTH 430 0
DWIDTH 7 0
BBX 7 9 0 0
BITMAP
1500
6580
0090
1680
1B80
0060
5024
7424
0BE0
ENDCHAR
STARTCHAR four
ENCODING 52
SWIDTH 412 0
DWIDTH 7 0
BBX 7 10 0 0
BITMAP
1000
6000
9000
8024
8030
50B0
3BB0
0530
0030
0020
ENDCHAR
STARTCHAR five
ENCODING 53
SWIDTH 571 0
DWIDTH 9 0
BBX 9 11 0 0
BITMAP
016900
039540
020000
090000
0F9000
016800
000900
000200
800600
641D00
1BE400
ENDCHAR
STARTCHAR six
ENCODING 54
SWIDTH 440 0
DWIDTH 7 0
BBX 7 10 0 0
BITMAP
0064
0294
0900
2400
2540
B9A0
9024
9018
7474
1F90
ENDCHAR
STARTCHAR seven
ENCODING 55
SWIDTH 412 0
DWIDTH 7 0
BBX 6 9 0 0
BITMAP
5540
1580
0080
0080
1AE0
0690
0240
0300
0200
ENDCHAR
STARTCHAR eight
ENCODING 56
SWIDTH 375 0
DWIDTH 6 0
BBX 6 9 0 0
BITMAP
2F40
9180
9240
2900
1A00
2180
6050
2460
0A80
ENDCHAR
STARTCHAR nine
ENCODING 57
SWIDTH 300 0
DWIDTH 5 0
BBX 5 10 0 0
BITMAP
2A00
9140
8280
9340
6F40
0240
0240
0200
0200
0240
ENDCHAR
STARTCHAR colon
ENCODING 58
SWIDTH 84 0
DWIDTH 1 0
BBX 1 5 0 1
BITMAP
40
40
00
00
40
ENDCHAR
STARTCHAR semicolon
ENCODING 59
SWIDTH 128 0
DWIDTH 2 0
BBX 3 9 -1 -3
BITMAP
24
00
00
00
08
18
24
30
60
ENDCHAR
STARTCHAR less
ENCODING 60
SWIDTH 487 0
DWIDTH 8 0
BBX 7 7 0 0
BITMAP
0004
0064
0180
0900
7400
BA50
0568
ENDCHAR
STARTCHAR equal
ENCODING 61
SWIDTH 524 0
DWIDTH 8 0
BBX 8 5 0 2
BITMAP
0100
6AAA
0000
0000
7FFD
ENDCHAR
STARTCHAR greater
ENCODING 62
SWIDTH 403 0
DWIDTH 6 0
BBX 7 8 0 0
BITMAP
4000
7400
0BA0
0074
00A0
0640
1900
6000
ENDCHAR
STARTCHAR question
ENCODING 63
SWIDTH 272 0
DWIDTH 4 0
BBX 4 14 0 0
BITMAP
68
46
03
03
06
0D
18
24
2E
00
00
00
00
02
ENDCHAR
STARTCHAR at
ENCODING 64
SWIDTH 815 0
DWIDTH 13 0
BBX 13 15 0 0
BITMAP
00140000
01AB8000
09006400
24000A00
20000240
402A9180
80903080
81808180
8240D240
6141D300
20976900
18680000
0A000000
02900500
006EB900
ENDCHAR
STARTCHAR A
ENCODING 65
SWIDTH 562 0
DWIDTH 9 0
BBX 9 12 0 0
BITMAP
0AA000
141800
200900
200200
200200
500240
655240
656A40
200180
200180
300180
200240
ENDCHAR
STARTCHAR B
ENCODING 66
SWIDTH 741 0
DWIDTH 12 0
BBX 12 11 0 0
BITMAP
2BF900
530200
024240
014600
01AE00
00C6D0
00C024
008009
00900A
01D009
006FF4
ENDCHAR
STARTCHAR C
ENCODING 67
SWIDTH 515 0
DWIDTH 8 0
BBX 8 11 0 0
BITMAP
0010
02F4
0920
2400
2000
8000
8000
8000
5000
3459
1FA4
ENDCHAR
STARTCHAR D
ENCODING 68
SWIDTH 741 0
DWIDTH 12 0
BBX 12 10 0 0
BITMAP
6FE400
406680
0020A0
002018
00200C
002409
002409
00241C
005074
00BB90
ENDCHAR
STARTCHAR E
ENCODING 69
SWIDTH 524 0
DWIDTH 8 0
BBX 8 10 0 0
BITMAP
7EA8
5000
5000
5014
BAA4
9000
9000
9000
9014
2FF9
ENDCHAR
STARTCHAR F
ENCODING 70
SWIDTH 514 0
DWIDTH 8 0
BBX 11 10 -1 0
BITMAP
05A940
6B96B4
020000
020000
024000
0BFE00
018000
018000
01C000
008000
ENDCHAR
STARTCHAR G
ENCODING 71
SWIDTH 571 0
DWIDTH 9 0
BBX 9 10 0 -1
BITMAP
000500
01AA40
060000
180000
209A00
505640
500240
240740
1BA640
000180
ENDCHAR
STARTCHAR H
ENCODING 72
SWIDTH 524 0
DWIDTH 8 0
BBX 8 11 0 0
BITMAP
0005
5005
5005
6005
6009
21A9
3A45
7406
2006
2006
1002
ENDCHAR
STARTCHAR I
ENCODING 73
SWIDTH 167 0
DWIDTH 3 0
BBX 3 9 0 0
BITMAP
80
90
50
20
30
20
24
24
14
ENDCHAR
STARTCHAR J
ENCODING 74
SWIDTH 439 0
DWIDTH 7 0
BBX 7 11 0 0
BITMAP
0020
0020
0024
0024
0018
4018
9008
2008
1818
0614
01A0
ENDCHAR
STARTCHAR K
ENCODING 75
SWIDTH 468 0
DWIDTH 8 0
BBX 7 9 0 0
BITMAP
8180
9700
5900
7400
7000
7C00
6740
20A0
201C
ENDCHAR
STARTCHAR L
ENCODING 76
SWIDTH 346 0
DWIDTH 6 0
BBX 5 9 0 0
BITMAP
1000
6000
6000
5000
9000
9000
9000
A000
2FC0
ENDCHAR
STARTCHAR M
ENCODING 77
SWIDTH 534 0
DWIDTH 9 0
BBX 8 10 0 0
BITMAP
5005
7009
381D
3BBD
3145
3006
3006
3007
3003
1003
ENDCHAR
STARTCHAR N
ENCODING 78
SWIDTH 609 0
DWIDTH 10 0
BBX 10 9 0 0
BITMAP
500000
600200
700340
740180
7800C0
590090
520090
91D580
506A00
ENDCHAR
STARTCHAR O
ENCODING 79
SWIDTH 609 0
DWIDTH 10 0
BBX 10 8 0 0
BITMAP
0A4000
257800
900700
800180
900080
600090
290280
07E900
ENDCHAR
STARTCHAR P
ENCODING 80
SWIDTH 627 0
DWIDTH 10 0
BBX 10 10 0 0
BITMAP
1A5000
A56E00
4041D0
008060
008060
00C1D0
00FE00
00C000
009000
005000
ENDCHAR
STARTCHAR Q
ENCODING 81
SWIDTH 642 0
DWIDTH 10 0
BBX 11 11 0 -2
BITMAP
065000
197800
201A00
501580
900090
501020
202460
191EC0
06FF40
000090
000024
ENDCHAR
STARTCHAR R
ENCODING 82
SWIDTH 579 0
DWIDTH 9 0
BBX 9 11 0 -1
BITMAP
6FE400
800A00
440240
080740
0EF900
0A0000
0B4000
059000
052400
010A00
000140
ENDCHAR
STARTCHAR S
ENCODING 83
SWIDTH 627 0
DWIDTH 10 0
BBX 10 10 0 0
BITMAP
01A400
0A4740
080000
0A0000
019000
002D00
400280
9000A0
240090
06AB80
ENDCHAR
STARTCHAR T
ENCODING 84
SWIDTH 581 0
DWIDTH 9 0
BBX 11 11 0 0
BITMAP
540000
6AFFA4
002014
002000
002000
002000
002400
002400
001800
001800
000C00
ENDCHAR
STARTCHAR U
ENCODING 85
SWIDTH 571 0
DWIDTH 9 0
BBX 9 9 0 0
BITMAP
200400
500900
900A00
900600
500200
600300
300740
186A80
0BD040
ENDCHAR
STARTCHAR V
ENCODING 86
SWIDTH 421 0
DWIDTH 7 0
BBX 7 8 0 0
BITMAP
9024
7024
3430
1870
0D60
0A90
03C0
0140
ENDCHAR
STARTCHAR W
ENCODING 87
SWIDTH 703 0
DWIDTH 11 0
BBX 11 8 0 0
BITMAP
800010
C00030
800024
905018
90600C
60B008
369824
1A07D0
ENDCHAR
STARTCHAR X
ENCODING 88
SWIDTH 534 0
DWIDTH 9 0
BBX 9 10 0 -1
BITMAP
100000
240640
081800
066000
038000
0B8000
189000
302400
500800
800000
ENDCHAR
STARTCHAR Y
ENCODING 89
SWIDTH 403 0
DWIDTH 6 0
BBX 6 10 0 0
BITMAP
8010
6020
2870
0BE0
00C0
0180
0140
0200
0200
0300
ENDCHAR
STARTCHAR Z
ENCODING 90
SWIDTH 571 0
DWIDTH 9 0
BBX 9 10 0 0
BITMAP
6A8000
406000
001400
001400
007900
0AFA00
008000
024000
060680
03FA40
ENDCHAR
STARTCHAR bracketleft
ENCODING 91
SWIDTH 477 0
DWIDTH 8 0
BBX 9 14 0 -2
BITMAP
000400
06A800
790000
900000
600000
300000
200000
240000
140000
180000
080000
080000
0EAF40
050000
ENDCHAR
STARTCHAR backslash
ENCODING 92
SWIDTH 430 0
DWIDTH 7 0
BBX 7 9 0 0
BITMAP
4000
6000
2800
0D00
0740
01C0
00A0
0034
0018
ENDCHAR
STARTCHAR bracketright
ENCODING 93
SWIDTH 430 0
DWIDTH 7 0
BBX 7 16 0 -2
BITMAP
1000
6F80
00A0
0030
0030
0020
0020
0024
0014
0014
0014
0014
0014
0018
2AB8
1A94
ENDCHAR
STARTCHAR asciicircum
ENCODING 94
SWIDTH 375 0
DWIDTH 6 0
BBX 4 4 1 8
BITMAP
14
2D
AB
41
ENDCHAR
STARTCHAR underscore
ENCODING 95
SWIDTH 656 0
DWIDTH 11 0
BBX 10 2 0 0
BITMAP
655540
05ABF0
ENDCHAR
STARTCHAR grave
ENCODING 96
SWIDTH 172 0
DWIDTH 3 0
BBX 3 2 0 7
BITMAP
50
24
ENDCHAR
STARTCHAR a
ENCODING 97
SWIDTH 505 0
DWIDTH 8 0
BBX 8 8 0 0
BITMAP
0780
0070
0018
1AAC
641D
8006
6415
1BE8
ENDCHAR
STARTCHAR b
ENCODING 98
SWIDTH 497 0
DWIDTH 8 0
BBX 8 10 0 0
BITMAP
8000
9000
9000
5000
6540
3AA4
301D
2006
280A
0BF8
ENDCHAR
STARTCHAR c
ENCODING 99
SWIDTH 449 0
DWIDTH 7 0
BBX 7 7 0 0
BITMAP
0A90
2020
9000
9000
9000
3400
1BE4
ENDCHAR
STARTCHAR d
ENCODING 100
SWIDTH 524 0
DWIDTH 8 0
BBX 8 12 0 0
BITMAP
0020
0028
001C
001C
000D
1F8D
757E
A00E
900E
902E
75A3
1F41
ENDCHAR
STARTCHAR e
ENCODING 101
SWIDTH 515 0
DWIDTH 8 0
BBX 7 9 0 0
BITMAP
0100
1A90
2020
5020
95D0
9900
6000
2900
06F8
ENDCHAR
STARTCHAR f
ENCODING 102
SWIDTH 376 0
DWIDTH 6 0
BBX 7 12 0 0
BITMAP
0040
07B4
080C
1400
1400
2400
2800
AFD0
0D00
0600
0340
0180
ENDCHAR
STARTCHAR g
ENCODING 103
SWIDTH 366 0
DWIDTH 6 0
BBX 8 15 -2 -8
BITMAP
0064
0198
0209
0909
090A
066E
019A
0006
0002
0002
4003
8002
A006
2E5D
01A4
ENDCHAR
STARTCHAR h
ENCODING 104
SWIDTH 427 0
DWIDTH 7 0
BBX 7 11 0 0
BITMAP
8000
C000
9000
9100
7F80
6060
2020
2020
3024
3024
2020
ENDCHAR
STARTCHAR i
ENCODING 105
SWIDTH 174 0
DWIDTH 3 0
BBX 3 10 0 0
BITMAP
40
40
00
20
20
30
30
24
24
14
ENDCHAR
STARTCHAR j
ENCODING 106
SWIDTH 200 0
DWIDTH 3 0
BBX 6 16 -2 -7
BITMAP
0500
0000
0000
0200
0240
0180
01C0
00C0
00D0
0090
0090
8060
6060
3460
1D90
07D0
ENDCHAR
STARTCHAR k
ENCODING 107
SWIDTH 403 0
DWIDTH 6 0
BBX 7 10 0 0
BITMAP
4000
8000
8000
9180
6200
7800
3400
3800
3A40
21B4
ENDCHAR
STARTCHAR l
ENCODING 108
SWIDTH 120 0
DWIDTH 2 0
BBX 2 9 0 0
BITMAP
90
90
90
90
90
90
90
90
50
ENDCHAR
STARTCHAR m
ENCODING 109
SWIDTH 750 0
DWIDTH 12 0
BBX 12 7 0 0
BITMAP
0501A0
BA8A68
A0780C
603409
602406
601806
100005
ENDCHAR
STARTCHAR n
ENCODING 110
SWIDTH 459 0
DWIDTH 7 0
BBX 7 7 0 0
BITMAP
0BD0
B470
A024
6018
600C
300C
2008
ENDCHAR
STARTCHAR o
ENCODING 111
SWIDTH 487 0
DWIDTH 8 0
BBX 8 7 0 0
BITMAP
0BE0
2428
5008
8009
900D
6478
1BD0
ENDCHAR
STARTCHAR p
ENCODING 112
SWIDTH 520 0
DWIDTH 8 0
BBX 8 12 0 -6
BITMAP
0590
2E6C
6006
A003
AA5A
71A4
7000
3400
3400
2800
1800
0400
ENDCHAR
STARTCHAR q
ENCODING 113
SWIDTH 412 0
DWIDTH 7 0
BBX 6 13 0 -5
BITMAP
0A90
2430
6030
8070
8060
9060
35A0
0AA0
0060
0060
0060
0020
0020
ENDCHAR
STARTCHAR r
ENCODING 114
SWIDTH 346 0
DWIDTH 6 0
BBX 6 8 0 0
BITMAP
0100
6AD0
9000
9000
5000
6000
3000
1400
ENDCHAR
STARTCHAR s
ENCODING 115
SWIDTH 514 0
DWIDTH 8 0
BBX 8 8 0 0
BITMAP
0500
2A90
6060
2400
06A8
000A
600A
1BF8
ENDCHAR
STARTCHAR t
ENCODING 116
SWIDTH 328 0
DWIDTH 5 0
BBX 5 10 0 0
BITMAP
0C00
0C00
0C00
0C00
BF80
0C00
0C00
0D00
0900
0500
ENDCHAR
STARTCHAR u
ENCODING 117
SWIDTH 501 0
DWIDTH 8 0
BBX 8 8 0 0
BITMAP
9000
8018
8018
9018
602C
2469
0B86
0001
ENDCHAR
STARTCHAR v
ENCODING 118
SWIDTH 389 0
DWIDTH 6 0
BBX 6 6 0 0
BITMAP
9010
6060
30C0
1980
0A40
0600
ENDCHAR
STARTCHAR w
ENCODING 119
SWIDTH 656 0
DWIDTH 11 0
BBX 10 7 0 0
BITMAP
100000
900040
802060
803030
907030
21E9A0
1F4690
ENDCHAR
STARTCHAR x
ENCODING 120
SWIDTH 448 0
DWIDTH 7 0
BBX 7 7 0 -1
BITMAP
9028
34A0
0F40
0B40
25D0
2074
0014
ENDCHAR
STARTCHAR y
ENCODING 121
SWIDTH 487 0
DWIDTH 8 0
BBX 8 15 0 -8
BITMAP
4004
8008
9008
6009
200D
196D
0685
0006
0006
0005
0005
1009
340C
1E64
02A0
ENDCHAR
STARTCHAR z
ENCODING 122
SWIDTH 459 0
DWIDTH 7 0
BBX 7 9 0 0
BITMAP
0500
7A80
4090
0090
15D0
6B50
0D00
2C18
1FE4
ENDCHAR
STARTCHAR braceleft
ENCODING 123
SWIDTH 393 0
DWIDTH 6 0
BBX 6 17 0 -2
BITMAP
0040
0AA0
3400
9000
8000
5000
2800
0B80
0AC0
6090
01C0
0600
1800
2000
2000
1950
0650
ENDCHAR
STARTCHAR bar
ENCODING 124
SWIDTH 149 0
DWIDTH 2 0
BBX 2 10 0 0
BITMAP
80
50
50
20
20
30
30
30
30
20
ENDCHAR
STARTCHAR braceright
ENCODING 125
SWIDTH 440 0
DWIDTH 7 0
BBX 7 19 0 -4
BITMAP
BB80
5060
0060
0090
0240
0900
1800
0FE0
0C00
0900
0240
0080
0060
0020
0014
0018
4024
A4A0
1A40
ENDCHAR
STARTCHAR asciitilde
ENCODING 126
SWIDTH 402 0
DWIDTH 6 0
BBX 6 3 0 6
BITMAP
2410
9690
4000
ENDCHAR
STARTCHAR nonbreakingspace
ENCODING 160
SWIDTH 375 0
DWIDTH 6 0
BBX 1 1 0 0
BITMAP
00
ENDCHAR
STARTCHAR exclamdown
ENCODING 161
SWIDTH 149 0
DWIDTH 2 0
BBX 2 11 0 0
BITMAP
B0
10
00
10
60
50
50
50
50
50
50
ENDCHAR
STARTCHAR cent
ENCODING 162
SWIDTH 449 0
DWIDTH 7 0
BBX 7 10 0 -1
BITMAP
0100
0200
1BD0
2260
9240
9240
9240
7640
1FE4
0140
ENDCHAR
STARTCHAR sterling
ENCODING 163
SWIDTH 758 0
DWIDTH 12 0
BBX 12 12 0 0
BITMAP
000064
000399
000902
000800
001940
06BE90
052400
002000
005000
008000
BFFE40
7E0500
ENDCHAR
STARTCHAR currency
ENCODING 164
SWIDTH 618 0
DWIDTH 10 0
BBX 9 9 0 0
BITMAP
400000
35B980
1E4700
180140
140080
180240
0D0A00
19AA00
100100
ENDCHAR
STARTCHAR yen
ENCODING 165
SWIDTH 389 0
DWIDTH 6 0
BBX 6 12 0 0
BITMAP
5000
3030
2460
08C0
0A80
0700
5740
1790
1B40
1A40
0600
0A00
ENDCHAR
STARTCHAR brokenbar
ENCODING 166
SWIDTH 117 0
DWIDTH 2 0
BBX 2 9 0 0
BITMAP
90
90
90
50
50
90
90
90
50
ENDCHAR
STARTCHAR section
ENCODING 167
SWIDTH 514 0
DWIDTH 8 0
BBX 8 11 0 0
BITMAP
0640
2978
3008
1950
2AA9
6003
3507
0ABD
000A
240A
1BF8
ENDCHAR
STARTCHAR dieresis
ENCODING 168
SWIDTH 397 0
DWIDTH 6 0
BBX 4 2 1 7
BITMAP
41
A7
ENDCHAR
STARTCHAR copyright
ENCODING 169
SWIDTH 667 0
DWIDTH 11 0
BBX 11 9 0 0
BITMAP
06F900
181740
21A890
620420
560024
560014
325524
1D6AA0
06EA40
ENDCHAR
STARTCHAR ordfeminine
ENCODING 170
SWIDTH 266 0
DWIDTH 4 0
BBX 4 5 0 4
BITMAP
10
14
16
42
69
ENDCHAR
STARTCHAR guillemotleft
ENCODING 171
SWIDTH 755 0
DWIDTH 12 0
BBX 11 8 0 0
BITMAP
000004
000464
006A80
019900
096000
74BA50
BA5564
056800
ENDCHAR
STARTCHAR logicalnot
ENCODING 172
SWIDTH 369 0
DWIDTH 6 0
BBX 6 3 0 4
BITMAP
1550
5590
0050
ENDCHAR
STARTCHAR hyphen_
ENCODING 173
SWIDTH 375 0
DWIDTH 6 0
BBX 6 1 0 4
BITMAP
7ED0
ENDCHAR
STARTCHAR registered
ENCODING 174
SWIDTH 708 0
DWIDTH 11 0
BBX 11 9 0 0
BITMAP
06BD00
185680
2A5AA0
618320
51E914
60E014
349824
1E47D0
02A900
ENDCHAR
STARTCHAR macron
ENCODING 175
SWIDTH 287 0
DWIDTH 5 0
BBX 5 2 0 7
BITMAP
2A40
5540
ENDCHAR
STARTCHAR degree
ENCODING 176
SWIDTH 254 0
DWIDTH 4 0
BBX 4 5 0 4
BITMAP
14
45
41
45
68
ENDCHAR
STARTCHAR plusminus
ENCODING 177
SWIDTH 459 0
DWIDTH 7 0
BBX 7 8 0 0
BITMAP
0500
0600
0300
6BF8
5240
0240
16A8
1554
ENDCHAR
STARTCHAR twosuperior
ENCODING 178
SWIDTH 296 0
DWIDTH 5 0
BBX 4 5 0 3
BITMAP
05
01
02
55
AA
ENDCHAR
STARTCHAR threesuperior
ENCODING 179
SWIDTH 204 0
DWIDTH 3 0
BBX 3 6 0 4
BITMAP
10
54
64
24
44
68
ENDCHAR
STARTCHAR acute
ENCODING 180
SWIDTH 180 0
DWIDTH 3 0
BBX 3 3 0 6
BITMAP
14
60
40
ENDCHAR
STARTCHAR mu
ENCODING 181
SWIDTH 501 0
DWIDTH 8 0
BBX 8 9 0 -1
BITMAP
4000
8014
8018
9018
A01C
B03C
AED9
8546
8000
ENDCHAR
STARTCHAR paragraph
ENCODING 182
SWIDTH 413 0
DWIDTH 7 0
BBX 6 9 0 -1
BITMAP
2FE0
7FA0
BF70
6B70
0270
0270
0270
0160
0010
ENDCHAR
STARTCHAR periodcentered
ENCODING 183
SWIDTH 212 0
DWIDTH 3 0
BBX 2 2 1 3
BITMAP
90
E0
ENDCHAR
STARTCHAR cedilla
ENCODING 184
SWIDTH 445 0
DWIDTH 7 0
BBX 5 5 2 -5
BITMAP
5000
2400
0640
5180
2A00
ENDCHAR
STARTCHAR onesuperior
ENCODING 185
SWIDTH 197 0
DWIDTH 3 0
BBX 3 6 0 3
BITMAP
08
18
68
94
14
10
ENDCHAR
STARTCHAR ordmasculine
ENCODING 186
SWIDTH 254 0
DWIDTH 4 0
BBX 4 5 0 4
BITMAP
14
45
41
45
68
ENDCHAR
STARTCHAR guillemotright
ENCODING 187
SWIDTH 659 0
DWIDTH 11 0
BBX 10 8 0 0
BITMAP
409000
747900
0BA6E0
0074A0
00A280
065900
196400
604000
ENDCHAR
STARTCHAR onequarter
ENCODING 188
SWIDTH 626 0
DWIDTH 10 0
BBX 9 12 0 0
BITMAP
001000
055000
084000
2C8000
588000
094000
066000
022000
021080
0526C0
080480
080080
ENDCHAR
STARTCHAR onehalf
ENCODING 189
SWIDTH 566 0
DWIDTH 9 0
BBX 9 12 0 -1
BITMAP
012000
051000
095000
2C8000
588400
498600
094100
0A0100
020200
069500
08AA40
080000
ENDCHAR
STARTCHAR threequarters
ENCODING 190
SWIDTH 566 0
DWIDTH 9 0
BBX 9 12 0 -1
BITMAP
002000
541000
445000
248000
188000
41A000
2A6040
021180
022B40
020440
050040
080000
ENDCHAR
STARTCHAR questiondown
ENCODING 191
SWIDTH 272 0
DWIDTH 4 0
BBX 5 12 0 0
BITMAP
6000
0000
0000
0000
6800
0900
1C00
3400
6000
9000
6000
1A40
ENDCHAR
STARTCHAR Agrave
ENCODING 192
SWIDTH 562 0
DWIDTH 9 0
BBX 9 15 0 0
BITMAP
014000
009000
000000
0AA000
141800
200900
200200
200200
500240
655240
656A40
200180
200180
300180
200240
ENDCHAR
STARTCHAR Aacute
ENCODING 193
SWIDTH 562 0
DWIDTH 9 0
BBX 9 15 0 0
BITMAP
014000
060000
040000
0AA000
141800
200900
200200
200200
500240
655240
656A40
200180
200180
300180
200240
ENDCHAR
STARTCHAR Acircumflex
ENCODING 194
SWIDTH 562 0
DWIDTH 9 0
BBX 9 16 0 0
BITMAP
014000
02D000
0AB000
041000
0AA000
141800
200900
200200
200200
500240
655240
656A40
200180
200180
300180
200240
ENDCHAR
STARTCHAR Atilde
ENCODING 195
SWIDTH 562 0
DWIDTH 9 0
BBX 9 15 0 0
BITMAP
090400
21A000
100000
0AA000
141800
200900
200200
200200
500240
655240
656A40
200180
200180
300180
200240
ENDCHAR
STARTCHAR Adieresis
ENCODING 196
SWIDTH 562 0
DWIDTH 9 0
BBX 9 15 0 0
BITMAP
041000
0A7400
000000
0AA000
141800
200900
200200
200200
500240
655240
656A40
200180
200180
300180
200240
ENDCHAR
STARTCHAR Aring
ENCODING 197
SWIDTH 562 0
DWIDTH 9 0
BBX 9 15 0 0
BITMAP
018000
055000
069000
0AA000
141800
200900
200200
200200
500240
655240
656A40
200180
200180
300180
200240
ENDCHAR
STARTCHAR AE
ENCODING 198
SWIDTH 960 0
DWIDTH 15 0
BBX 15 12 0 0
BITMAP
0AA00000
14180000
2009FFA4
20028000
20038000
50028050
6552EA90
656A8000
20018000
20018000
30018054
2002BFE4
ENDCHAR
STARTCHAR Ccedilla
ENCODING 199
SWIDTH 515 0
DWIDTH 8 0
BBX 8 16 0 -5
BITMAP
0010
02F4
0920
2400
2000
8000
8000
8000
5000
3459
1FA4
0800
0640
0060
0524
0290
ENDCHAR
STARTCHAR Egrave
ENCODING 200
SWIDTH 524 0
DWIDTH 8 0
BBX 8 13 0 0
BITMAP
0240
0180
0000
7EA8
5000
5000
5014
BAA4
9000
9000
9000
9014
2FF9
ENDCHAR
STARTCHAR Eacute
ENCODING 201
SWIDTH 524 0
DWIDTH 8 0
BBX 8 13 0 0
BITMAP
0080
0240
0500
7EA8
5000
5000
5014
BAA4
9000
9000
9000
9014
2FF9
ENDCHAR
STARTCHAR Ecircumflex
ENCODING 202
SWIDTH 524 0
DWIDTH 8 0
BBX 8 14 0 0
BITMAP
0080
01D0
0674
0414
7EA8
5000
5000
5014
BAA4
9000
9000
9000
9014
2FF9
ENDCHAR
STARTCHAR Edieresis
ENCODING 203
SWIDTH 524 0
DWIDTH 8 0
BBX 8 13 0 0
BITMAP
0410
0A70
0000
7EA8
5000
5000
5014
BAA4
9000
9000
9000
9014
2FF9
ENDCHAR
STARTCHAR Igrave
ENCODING 204
SWIDTH 167 0
DWIDTH 3 0
BBX 3 12 0 0
BITMAP
80
60
00
80
90
50
20
30
20
24
24
14
ENDCHAR
STARTCHAR Iacute
ENCODING 205
SWIDTH 167 0
DWIDTH 3 0
BBX 4 12 -1 0
BITMAP
08
24
50
20
24
14
08
0C
08
09
09
05
ENDCHAR
STARTCHAR Icircumflex
ENCODING 206
SWIDTH 167 0
DWIDTH 3 0
BBX 5 14 -1 0
BITMAP
0800
1E00
7740
4140
0000
2000
2400
1400
0800
0C00
0800
0900
0900
0500
ENDCHAR
STARTCHAR Idieresis
ENCODING 207
SWIDTH 167 0
DWIDTH 3 0
BBX 5 12 -2 0
BITMAP
1100
A340
0000
0800
0900
0500
0200
0300
0200
0240
0240
0140
ENDCHAR
STARTCHAR Eth
ENCODING 208
SWIDTH 741 0
DWIDTH 12 0
BBX 12 10 0 0
BITMAP
6FE400
406680
0060A0
002018
00BB4C
016409
002409
00241C
005074
00BB90
ENDCHAR
STARTCHAR Ntilde
ENCODING 209
SWIDTH 609 0
DWIDTH 10 0
BBX 10 11 0 0
BITMAP
064100
086800
540000
600200
700340
740180
7800C0
590090
520090
91D580
506A00
ENDCHAR
STARTCHAR Ograve
ENCODING 210
SWIDTH 609 0
DWIDTH 10 0
BBX 10 11 0 0
BITMAP
009000
002000
000000
0A4000
257800
900700
800180
900080
600090
290280
07E900
ENDCHAR
STARTCHAR Oacute
ENCODING 211
SWIDTH 609 0
DWIDTH 10 0
BBX 10 11 0 0
BITMAP
001000
018000
010000
0A4000
257800
900700
800180
900080
600090
290280
07E900
ENDCHAR
STARTCHAR Ocircumflex
ENCODING 212
SWIDTH 609 0
DWIDTH 10 0
BBX 10 13 0 0
BITMAP
020000
078000
0DD000
141000
000000
0A4000
257800
900700
800180
900080
600090
290280
07E900
ENDCHAR
STARTCHAR Otilde
ENCODING 213
SWIDTH 609 0
DWIDTH 10 0
BBX 10 11 0 0
BITMAP
090400
25A400
100000
0A4000
257800
900700
800180
900080
600090
290280
07E900
ENDCHAR
STARTCHAR Odieresis
ENCODING 214
SWIDTH 609 0
DWIDTH 10 0
BBX 10 11 0 0
BITMAP
010400
036800
000000
0A4000
257800
900700
800180
900080
600090
290280
07E900
ENDCHAR
STARTCHAR multiply
ENCODING 215
SWIDTH 448 0
DWIDTH 7 0
BBX 5 4 1 1
BITMAP
D240
3D00
2D00
9200
ENDCHAR
STARTCHAR Oslash
ENCODING 216
SWIDTH 609 0
DWIDTH 10 0
BBX 10 12 0 -2
BITMAP
001400
002400
0A6000
25B800
909700
80C180
918080
624090
2B0280
0BE900
0C0000
040000
ENDCHAR
STARTCHAR Ugrave
ENCODING 217
SWIDTH 571 0
DWIDTH 9 0
BBX 9 11 0 0
BITMAP
008000
006000
200400
500900
900A00
900600
500200
600300
300740
186A80
0BD040
ENDCHAR
STARTCHAR Uacute
ENCODING 218
SWIDTH 571 0
DWIDTH 9 0
BBX 9 11 0 0
BITMAP
005000
018000
210400
500900
900A00
900600
500200
600300
300740
186A80
0BD040
ENDCHAR
STARTCHAR Ucircumflex
ENCODING 219
SWIDTH 571 0
DWIDTH 9 0
BBX 9 14 0 0
BITMAP
008000
00E000
026800
050400
000000
200400
500900
900A00
900600
500200
600300
300740
186A80
0BD040
ENDCHAR
STARTCHAR Udieresis
ENCODING 220
SWIDTH 571 0
DWIDTH 9 0
BBX 9 11 0 0
BITMAP
011000
073800
200400
500900
900A00
900600
500200
600300
300740
186A80
0BD040
ENDCHAR
STARTCHAR Yacute
ENCODING 221
SWIDTH 403 0
DWIDTH 6 0
BBX 6 13 0 0
BITMAP
0040
0280
0100
8010
6020
2870
0BE0
00C0
0180
0140
0200
0200
0300
ENDCHAR
STARTCHAR Thorn
ENCODING 222
SWIDTH 497 0
DWIDTH 8 0
BBX 8 13 0 -3
BITMAP
2000
6000
6000
6000
2540
3AA4
301D
3006
380A
3BF8
2000
2000
1000
ENDCHAR
STARTCHAR germandbls
ENCODING 223
SWIDTH 590 0
DWIDTH 9 0
BBX 9 13 0 -2
BITMAP
7F4000
606000
603000
609000
63D000
207800
200600
200180
2000C0
205680
25A500
240000
340000
ENDCHAR
STARTCHAR agrave
ENCODING 224
SWIDTH 505 0
DWIDTH 8 0
BBX 8 10 0 0
BITMAP
0200
0180
0780
0070
0018
1AAC
641D
8006
6415
1BE8
ENDCHAR
STARTCHAR aacute
ENCODING 225
SWIDTH 505 0
DWIDTH 8 0
BBX 8 11 0 0
BITMAP
0080
0240
0500
0780
0070
0018
1AAC
641D
8006
6415
1BE8
ENDCHAR
STARTCHAR acircumflex
ENCODING 226
SWIDTH 505 0
DWIDTH 8 0
BBX 8 12 0 0
BITMAP
0140
02D0
0670
0410
0780
0070
0018
1AAC
641D
8006
6415
1BE8
ENDCHAR
STARTCHAR atilde
ENCODING 227
SWIDTH 505 0
DWIDTH 8 0
BBX 8 11 0 0
BITMAP
1904
21A0
1000
0780
0070
0018
1AAC
641D
8006
6415
1BE8
ENDCHAR
STARTCHAR adieresis
ENCODING 228
SWIDTH 505 0
DWIDTH 8 0
BBX 8 11 0 0
BITMAP
0410
0E70
0000
0780
0070
0018
1AAC
641D
8006
6415
1BE8
ENDCHAR
STARTCHAR aring
ENCODING 229
SWIDTH 505 0
DWIDTH 8 0
BBX 8 11 0 0
BITMAP
0140
0550
0590
0780
0070
0018
1AAC
641D
8006
6415
1BE8
ENDCHAR
STARTCHAR ae
ENCODING 230
SWIDTH 881 0
DWIDTH 14 0
BBX 14 9 0 -1
BITMAP
0780A900
00724600
001E0200
1AAD0A00
641EA400
80060000
64174000
1BE9BA90
00000500
ENDCHAR
STARTCHAR ccedilla
ENCODING 231
SWIDTH 449 0
DWIDTH 7 0
BBX 7 12 0 -5
BITMAP
1A90
2020
9000
9000
9000
3400
1FE4
0800
0640
0060
0920
0290
ENDCHAR
STARTCHAR egrave
ENCODING 232
SWIDTH 515 0
DWIDTH 8 0
BBX 7 11 0 0
BITMAP
0500
0240
0100
1A90
2020
5020
95D0
9900
6000
2900
06F8
ENDCHAR
STARTCHAR eacute
ENCODING 233
SWIDTH 515 0
DWIDTH 8 0
BBX 7 11 0 0
BITMAP
0040
0600
0500
1A90
2020
5020
95D0
9900
6000
2900
06F8
ENDCHAR
STARTCHAR ecircumflex
ENCODING 234
SWIDTH 515 0
DWIDTH 8 0
BBX 7 12 0 0
BITMAP
0040
02D0
0670
0510
1A90
2020
5020
95D0
9900
6000
2900
06F8
ENDCHAR
STARTCHAR edieresis
ENCODING 235
SWIDTH 515 0
DWIDTH 8 0
BBX 7 11 0 0
BITMAP
0410
0DA0
0100
1A90
2020
5020
95D0
9900
6000
2900
06F8
ENDCHAR
STARTCHAR igrave
ENCODING 236
SWIDTH 174 0
DWIDTH 3 0
BBX 3 10 0 0
BITMAP
40
70
00
20
20
30
30
24
24
14
ENDCHAR
STARTCHAR iacute
ENCODING 237
SWIDTH 174 0
DWIDTH 3 0
BBX 3 10 0 0
BITMAP
20
90
40
20
20
30
30
24
24
14
ENDCHAR
STARTCHAR icircumflex
ENCODING 238
SWIDTH 174 0
DWIDTH 3 0
BBX 5 12 -1 0
BITMAP
0800
1E00
7740
5040
0000
0800
0800
0C00
0C00
0900
0900
0500
ENDCHAR
STARTCHAR idieresis
ENCODING 239
SWIDTH 174 0
DWIDTH 3 0
BBX 5 10 -1 0
BITMAP
0100
A740
0000
0800
0800
0C00
0C00
0900
0900
0500
ENDCHAR
STARTCHAR eth
ENCODING 240
SWIDTH 407 0
DWIDTH 7 0
BBX 7 9 0 0
BITMAP
1400
5A10
07E0
0960
1AB0
6074
9014
6020
2ED0
ENDCHAR
STARTCHAR ntilde
ENCODING 241
SWIDTH 459 0
DWIDTH 7 0
BBX 7 10 0 0
BITMAP
2410
56D0
4000
0BD0
B470
A024
6018
600C
300C
2008
ENDCHAR
STARTCHAR ograve
ENCODING 242
SWIDTH 487 0
DWIDTH 8 0
BBX 8 9 0 0
BITMAP
0240
0080
0BE0
2428
5008
8009
900D
6478
1BD0
ENDCHAR
STARTCHAR oacute
ENCODING 243
SWIDTH 487 0
DWIDTH 8 0
BBX 8 10 0 0
BITMAP
0040
0240
0500
0BE0
2428
5008
8009
900D
6478
1BD0
ENDCHAR
STARTCHAR ocircumflex
ENCODING 244
SWIDTH 487 0
DWIDTH 8 0
BBX 8 11 0 0
BITMAP
0140
03C0
09A0
0410
0BE0
2428
5008
8009
900D
6478
1BD0
ENDCHAR
STARTCHAR otilde
ENCODING 245
SWIDTH 487 0
DWIDTH 8 0
BBX 8 9 0 0
BITMAP
0904
21A0
1BE0
2428
5008
8009
900D
6478
1BD0
ENDCHAR
STARTCHAR odieresis
ENCODING 246
SWIDTH 487 0
DWIDTH 8 0
BBX 8 9 0 0
BITMAP
0410
0DB0
0BE0
2428
5008
8009
900D
6478
1BD0
ENDCHAR
STARTCHAR divide
ENCODING 247
SWIDTH 335 0
DWIDTH 5 0
BBX 5 5 0 1
BITMAP
0400
0900
6A40
0000
0400
ENDCHAR
STARTCHAR oslash
ENCODING 248
SWIDTH 487 0
DWIDTH 8 0
BBX 8 8 0 0
BITMAP
0010
05B0
29B4
61CC
8349
9A0D
7C28
3BE0
ENDCHAR
STARTCHAR ugrave
ENCODING 249
SWIDTH 501 0
DWIDTH 8 0
BBX 8 11 0 0
BITMAP
0900
0200
0000
9000
8018
8018
9018
602C
2469
0B86
0001
ENDCHAR
STARTCHAR uacute
ENCODING 250
SWIDTH 501 0
DWIDTH 8 0
BBX 8 11 0 0
BITMAP
0080
0240
0500
9000
8018
8018
9018
602C
2469
0B86
0001
ENDCHAR
STARTCHAR ucircumflex
ENCODING 251
SWIDTH 501 0
DWIDTH 8 0
BBX 8 12 0 0
BITMAP
0140
02D0
0A70
0410
9000
8018
8018
9018
602C
2469
0B86
0001
ENDCHAR
STARTCHAR udieresis
ENCODING 252
SWIDTH 501 0
DWIDTH 8 0
BBX 8 10 0 0
BITMAP
0440
1CA0
9000
8018
8018
9018
602C
2469
0B86
0001
ENDCHAR
STARTCHAR yacute
ENCODING 253
SWIDTH 487 0
DWIDTH 8 0
BBX 8 19 0 -8
BITMAP
0040
0340
0400
0000
4004
8008
9008
6009
200D
196D
0685
0006
0006
0005
0005
1009
340C
1E64
02A0
ENDCHAR
STARTCHAR thorn
ENCODING 254
SWIDTH 520 0
DWIDTH 8 0
BBX 8 11 0 -3
BITMAP
6000
5000
5AE4
740A
6003
6007
BFBD
9000
9000
9000
5000
ENDCHAR
STARTCHAR ydieresis
ENCODING 255
SWIDTH 487 0
DWIDTH 8 0
BBX 8 18 0 -8
BITMAP
0440
1CA0
0000
4004
8008
9008
6009
200D
196D
0685
0006
0006
0005
0005
1009
340C
1E64
02A0
ENDCHAR
STARTCHAR Amacron
ENCODING 256
SWIDTH 562 0
DWIDTH 9 0
BBX 9 15 0 0
BITMAP
069000
095000
000000
0AA000
141800
200900
200200
200200
500240
655240
656A40
200180
200180
300180
200240
ENDCHAR
STARTCHAR amacron
ENCODING 257
SWIDTH 505 0
DWIDTH 8 0
BBX 8 11 0 0
BITMAP
0690
0950
0000
0780
0070
0018
1AAC
641D
8006
6415
1BE8
ENDCHAR
STARTCHAR Abreve
ENCODING 258
SWIDTH 562 0
DWIDTH 9 0
BBX 9 15 0 0
BITMAP
012000
019000
000000
0AA000
141800
200900
200200
200200
500240
655240
656A40
200180
200180
300180
200240
ENDCHAR
STARTCHAR abreve
ENCODING 259
SWIDTH 505 0
DWIDTH 8 0
BBX 8 10 0 0
BITMAP
0480
0240
0780
0070
0018
1AAC
641D
8006
6415
1BE8
ENDCHAR
STARTCHAR Aogonek
ENCODING 260
SWIDTH 562 0
DWIDTH 9 0
BBX 9 15 0 -3
BITMAP
0AA000
141800
200900
200200
200200
500240
655240
656A40
200180
200180
300180
200740
000800
000940
000140
ENDCHAR
STARTCHAR aogonek
ENCODING 261
SWIDTH 505 0
DWIDTH 8 0
BBX 8 10 0 -2
BITMAP
0780
0070
0018
1AAC
641D
8006
6415
1BF8
0090
0069
ENDCHAR
STARTCHAR Cacute
ENCODING 262
SWIDTH 515 0
DWIDTH 8 0
BBX 8 13 0 0
BITMAP
0010
0180
0150
02F4
0920
2400
2000
8000
8000
8000
5000
3459
1FA4
ENDCHAR
STARTCHAR cacute
ENCODING 263
SWIDTH 449 0
DWIDTH 7 0
BBX 7 11 0 0
BITMAP
0080
0240
0500
0000
0A90
2020
9000
9000
9000
3400
1BE4
ENDCHAR
STARTCHAR Ccircumflex
ENCODING 264
SWIDTH 515 0
DWIDTH 8 0
BBX 8 14 0 0
BITMAP
0040
02D0
0670
0420
02F4
0920
2400
2000
8000
8000
8000
5000
3459
1FA4
ENDCHAR
STARTCHAR ccircumflex
ENCODING 265
SWIDTH 449 0
DWIDTH 7 0
BBX 7 12 0 0
BITMAP
0100
0380
09A0
1410
0000
0A90
2020
9000
9000
9000
3400
1BE4
ENDCHAR
STARTCHAR Cdotaccent
ENCODING 266
SWIDTH 515 0
DWIDTH 8 0
BBX 8 13 0 0
BITMAP
0080
0040
0010
02F4
0920
2400
2000
8000
8000
8000
5000
3459
1FA4
ENDCHAR
STARTCHAR cdotaccent
ENCODING 267
SWIDTH 449 0
DWIDTH 7 0
BBX 7 9 0 0
BITMAP
0200
0100
0A90
2020
9000
9000
9000
3400
1BE4
ENDCHAR
STARTCHAR Ccaron
ENCODING 268
SWIDTH 515 0
DWIDTH 8 0
BBX 8 13 0 0
BITMAP
0218
00A4
0050
02F4
0920
2400
2000
8000
8000
8000
5000
3459
1FA4
ENDCHAR
STARTCHAR ccaron
ENCODING 269
SWIDTH 449 0
DWIDTH 7 0
BBX 7 10 0 0
BITMAP
1450
0780
0000
0A90
2020
9000
9000
9000
3400
1BE4
ENDCHAR
STARTCHAR Dcaron
ENCODING 270
SWIDTH 741 0
DWIDTH 12 0
BBX 12 12 0 0
BITMAP
009200
002D00
6FE800
406680
0020A0
002018
00200C
002409
002409
00241C
005074
00BB90
ENDCHAR
STARTCHAR dcaron
ENCODING 271
SWIDTH 582 0
DWIDTH 9 0
BBX 9 12 0 0
BITMAP
002040
0028C0
001CC0
001C80
000D00
1F8D00
757E00
A00E00
900E00
902E00
75A300
1F4100
ENDCHAR
STARTCHAR Dcroat
ENCODING 272
SWIDTH 741 0
DWIDTH 12 0
BBX 12 10 0 0
BITMAP
6FE400
406680
0020A0
002018
00740C
01B909
002409
00241C
005074
00BB90
ENDCHAR
STARTCHAR dcroat
ENCODING 273
SWIDTH 524 0
DWIDTH 8 0
BBX 9 12 0 0
BITMAP
001000
002400
006D00
01AE40
000D00
2F9900
747E00
A00E00
900E00
902E00
75A300
1F4100
ENDCHAR
STARTCHAR Emacron
ENCODING 274
SWIDTH 524 0
DWIDTH 8 0
BBX 8 12 0 0
BITMAP
06A0
0950
7EA8
5000
5000
5014
BAA4
9000
9000
9000
9014
2FF9
ENDCHAR
STARTCHAR emacron
ENCODING 275
SWIDTH 515 0
DWIDTH 8 0
BBX 7 11 0 0
BITMAP
06A0
0950
0100
1A90
2020
5020
95D0
9900
6000
2900
06F8
ENDCHAR
STARTCHAR Ebreve
ENCODING 276
SWIDTH 524 0
DWIDTH 8 0
BBX 8 13 0 0
BITMAP
0550
0140
0000
7EA8
5000
5000
5014
BAA4
9000
9000
9000
9014
2FF9
ENDCHAR
STARTCHAR ebreve
ENCODING 277
SWIDTH 515 0
DWIDTH 8 0
BBX 7 11 0 0
BITMAP
0220
0180
0100
1A90
2020
5020
95D0
9900
6000
2900
06F8
ENDCHAR
STARTCHAR Edotaccent
ENCODING 278
SWIDTH 524 0
DWIDTH 8 0
BBX 8 12 0 0
BITMAP
0140
0140
7EA8
5000
5000
5014
BAA4
9000
9000
9000
9014
2FF9
ENDCHAR
STARTCHAR edotaccent
ENCODING 279
SWIDTH 515 0
DWIDTH 8 0
BBX 7 11 0 0
BITMAP
0200
0100
0100
1A90
2020
5020
95D0
9900
6000
2900
06F8
ENDCHAR
STARTCHAR Eogonek
ENCODING 280
SWIDTH 524 0
DWIDTH 8 0
BBX 8 13 0 -3
BITMAP
7EA8
5000
5000
5014
BAA4
9000
9000
9000
9014
2FF9
0090
00A4
0004
ENDCHAR
STARTCHAR eogonek
ENCODING 281
SWIDTH 515 0
DWIDTH 8 0
BBX 7 12 0 -3
BITMAP
0100
1A90
2020
5020
95D0
9900
6000
2900
06F8
0080
0094
0004
ENDCHAR
STARTCHAR Ecaron
ENCODING 282
SWIDTH 524 0
DWIDTH 8 0
BBX 8 12 0 0
BITMAP
0524
02D0
7EE8
5000
5000
5014
BAA4
9000
9000
9000
9014
2FF9
ENDCHAR
STARTCHAR ecaron
ENCODING 283
SWIDTH 515 0
DWIDTH 8 0
BBX 7 11 0 0
BITMAP
0520
02D0
0140
1A90
2020
5020
95D0
9900
6000
2900
06F8
ENDCHAR
STARTCHAR Gcircumflex
ENCODING 284
SWIDTH 571 0
DWIDTH 9 0
BBX 9 14 0 -1
BITMAP
001400
002D00
00AB00
004100
000500
01AA40
060000
180000
209A00
505640
500240
240740
1BA640
000180
ENDCHAR
STARTCHAR gcircumflex
ENCODING 285
SWIDTH 366 0
DWIDTH 6 0
BBX 8 20 -2 -8
BITMAP
0050
00B4
02AC
0104
0000
0064
0198
0209
0909
090A
066E
019A
0006
0002
0002
4003
8002
A006
2E5D
01A4
ENDCHAR
STARTCHAR Gbreve
ENCODING 286
SWIDTH 571 0
DWIDTH 9 0
BBX 9 11 0 -1
BITMAP
012000
019500
01AA40
060000
180000
209A00
505640
500240
240740
1BA640
000180
ENDCHAR
STARTCHAR gbreve
ENCODING 287
SWIDTH 366 0
DWIDTH 6 0
BBX 8 17 -2 -8
BITMAP
0154
0050
0064
0198
0209
0909
090A
066E
019A
0006
0002
0002
4003
8002
A006
2E5D
01A4
ENDCHAR
STARTCHAR Gdotaccent
ENCODING 288
SWIDTH 571 0
DWIDTH 9 0
BBX 9 11 0 -1
BITMAP
002000
002500
01AA40
060000
180000
209A00
505640
500240
240740
1BA640
000180
ENDCHAR
STARTCHAR gdotaccent
ENCODING 289
SWIDTH 366 0
DWIDTH 6 0
BBX 8 17 -2 -8
BITMAP
0050
0050
0064
0198
0209
0909
090A
066E
019A
0006
0002
0002
4003
8002
A006
2E5D
01A4
ENDCHAR
STARTCHAR Gcommaaccent
ENCODING 290
SWIDTH 571 0
DWIDTH 9 0
BBX 9 14 0 -5
BITMAP
000500
01AA40
060000
180000
209A00
505640
500240
240740
1BA640
000180
004000
00C000
008000
008000
ENDCHAR
STARTCHAR gcommaaccent
ENCODING 291
SWIDTH 366 0
DWIDTH 6 0
BBX 8 22 -2 -8
BITMAP
0040
0090
0090
0050
0000
0000
0000
0064
0198
0209
0909
090A
066E
019A
0006
0002
0002
4003
8002
A006
2E5D
01A4
ENDCHAR
STARTCHAR Hcircumflex
ENCODING 292
SWIDTH 524 0
DWIDTH 8 0
BBX 8 16 0 0
BITMAP
0040
02D0
0670
0410
0000
0005
5005
5005
6005
6009
21A9
3A45
7406
2006
2006
1002
ENDCHAR
STARTCHAR hcircumflex
ENCODING 293
SWIDTH 427 0
DWIDTH 7 0
BBX 7 13 0 0
BITMAP
0100
0380
89A0
D410
9000
9100
7F80
6060
2020
2020
3024
3024
2020
ENDCHAR
STARTCHAR hbar
ENCODING 295
SWIDTH 427 0
DWIDTH 7 0
BBX 8 11 -1 0
BITMAP
2000
3000
BE00
6540
1FE0
1818
0808
0808
0C09
0C09
0808
ENDCHAR
STARTCHAR Itilde
ENCODING 296
SWIDTH 167 0
DWIDTH 3 0
BBX 6 11 -2 0
BITMAP
1810
6290
1800
0900
0500
0200
0300
0200
0240
0240
0140
ENDCHAR
STARTCHAR itilde
ENCODING 297
SWIDTH 174 0
DWIDTH 3 0
BBX 6 11 -1 0
BITMAP
1010
9A90
4000
0000
0800
0800
0C00
0C00
0900
0900
0500
ENDCHAR
STARTCHAR imacron
ENCODING 299
SWIDTH 174 0
DWIDTH 3 0
BBX 4 10 -1 0
BITMAP
6A
55
00
08
08
0C
0C
09
09
05
ENDCHAR
STARTCHAR Ibreve
ENCODING 300
SWIDTH 167 0
DWIDTH 3 0
BBX 3 12 0 0
BITMAP
88
64
00
80
90
50
20
30
20
24
24
14
ENDCHAR
STARTCHAR ibreve
ENCODING 301
SWIDTH 174 0
DWIDTH 3 0
BBX 3 10 0 0
BITMAP
04
A4
00
20
20
30
30
24
24
14
ENDCHAR
STARTCHAR Iogonek
ENCODING 302
SWIDTH 167 0
DWIDTH 3 0
BBX 3 12 0 -3
BITMAP
80
90
50
20
30
20
24
24
24
80
94
14
ENDCHAR
STARTCHAR iogonek
ENCODING 303
SWIDTH 174 0
DWIDTH 3 0
BBX 3 13 0 -3
BITMAP
40
40
00
20
20
30
30
24
24
64
80
94
14
ENDCHAR
STARTCHAR Idotaccent
ENCODING 304
SWIDTH 167 0
DWIDTH 3 0
BBX 3 12 0 0
BITMAP
80
40
00
80
90
50
20
30
20
24
24
14
ENDCHAR
STARTCHAR dotlessi
ENCODING 305
SWIDTH 174 0
DWIDTH 3 0
BBX 2 7 1 0
BITMAP
80
80
C0
C0
90
90
50
ENDCHAR
STARTCHAR Jcircumflex
ENCODING 308
SWIDTH 439 0
DWIDTH 7 0
BBX 8 16 0 0
BITMAP
0020
0078
01DD
0105
0000
0020
0020
0024
0024
0018
4018
9008
2008
1818
0614
01A0
ENDCHAR
STARTCHAR jcircumflex
ENCODING 309
SWIDTH 200 0
DWIDTH 3 0
BBX 6 19 -2 -7
BITMAP
0100
0380
09A0
1410
0000
0000
0200
0240
0180
01C0
00C0
00D0
0090
0090
8060
6060
3460
1D90
07D0
ENDCHAR
STARTCHAR Kcommaaccent
ENCODING 310
SWIDTH 468 0
DWIDTH 8 0
BBX 7 14 0 -5
BITMAP
8180
9700
5900
7400
7000
7C00
6740
20A0
201C
0000
0100
0240
0240
0300
ENDCHAR
STARTCHAR kcommaaccent
ENCODING 311
SWIDTH 403 0
DWIDTH 6 0
BBX 7 15 0 -5
BITMAP
4000
8000
8000
9180
6200
7800
3400
3800
3A40
21B4
0000
0000
0600
0600
0500
ENDCHAR
STARTCHAR Lacute
ENCODING 313
SWIDTH 346 0
DWIDTH 6 0
BBX 5 12 0 0
BITMAP
0040
0600
0400
1000
6000
6000
5000
9000
9000
9000
A000
2FC0
ENDCHAR
STARTCHAR lacute
ENCODING 314
SWIDTH 120 0
DWIDTH 2 0
BBX 2 13 0 0
BITMAP
10
90
40
00
90
90
90
90
90
90
90
90
50
ENDCHAR
STARTCHAR Lcommaaccent
ENCODING 315
SWIDTH 346 0
DWIDTH 6 0
BBX 5 14 0 -5
BITMAP
1000
6000
6000
5000
9000
9000
9000
A000
2FC0
0000
0400
0900
0900
0C00
ENDCHAR
STARTCHAR lcommaaccent
ENCODING 316
SWIDTH 120 0
DWIDTH 2 0
BBX 2 14 0 -5
BITMAP
90
90
90
90
90
90
90
90
50
00
00
90
60
90
ENDCHAR
STARTCHAR Lcaron
ENCODING 317
SWIDTH 346 0
DWIDTH 6 0
BBX 5 12 0 0
BITMAP
0100
0600
0600
1200
6000
6000
5000
9000
9000
9000
A000
2FC0
ENDCHAR
STARTCHAR lcaron
ENCODING 318
SWIDTH 222 0
DWIDTH 4 0
BBX 4 12 0 0
BITMAP
04
08
09
99
90
90
90
90
90
90
90
50
ENDCHAR
STARTCHAR Ldot
ENCODING 319
SWIDTH 346 0
DWIDTH 6 0
BBX 5 9 0 0
BITMAP
1000
6000
6000
5000
9900
9E00
9000
A000
2FC0
ENDCHAR
STARTCHAR ldot
ENCODING 320
SWIDTH 333 0
DWIDTH 5 0
BBX 5 9 0 0
BITMAP
9000
9000
9000
9000
9240
9780
9000
9000
5000
ENDCHAR
STARTCHAR Lslash
ENCODING 321
SWIDTH 346 0
DWIDTH 6 0
BBX 6 9 0 0
BITMAP
1400
2400
2400
2000
3800
7800
7000
2540
0BE0
ENDCHAR
STARTCHAR lslash
ENCODING 322
SWIDTH 120 0
DWIDTH 2 0
BBX 4 9 -1 0
BITMAP
14
18
18
1E
78
98
18
18
14
ENDCHAR
STARTCHAR Nacute
ENCODING 323
SWIDTH 609 0
DWIDTH 10 0
BBX 10 11 0 0
BITMAP
001000
018000
510000
600200
700340
740180
7800C0
590090
520090
91D580
506A00
ENDCHAR
STARTCHAR nacute
ENCODING 324
SWIDTH 459 0
DWIDTH 7 0
BBX 7 11 0 0
BITMAP
0140
0A00
0400
0000
0BD0
B470
A024
6018
600C
300C
2008
ENDCHAR
STARTCHAR Ncommaaccent
ENCODING 325
SWIDTH 609 0
DWIDTH 10 0
BBX 10 14 0 -5
BITMAP
500000
600200
700340
740180
7800C0
590090
520090
91D580
506A00
000000
004000
009000
005000
008000
ENDCHAR
STARTCHAR ncommaaccent
ENCODING 326
SWIDTH 459 0
DWIDTH 7 0
BBX 7 12 0 -5
BITMAP
0BD0
B470
A024
6018
600C
300C
2008
0000
0100
0340
0240
0300
ENDCHAR
STARTCHAR Ncaron
ENCODING 327
SWIDTH 609 0
DWIDTH 10 0
BBX 10 12 0 0
BITMAP
021800
00B400
000000
500000
600200
700340
740180
7800C0
590090
520090
91D580
506A00
ENDCHAR
STARTCHAR ncaron
ENCODING 328
SWIDTH 459 0
DWIDTH 7 0
BBX 7 10 0 0
BITMAP
0860
0380
0000
0BD0
B470
A024
6018
600C
300C
2008
ENDCHAR
STARTCHAR napostrophe
ENCODING 329
SWIDTH 459 0
DWIDTH 7 0
BBX 7 10 0 0
BITMAP
2800
1800
2400
0BD0
B470
A024
6018
600C
300C
2008
ENDCHAR
STARTCHAR Omacron
ENCODING 332
SWIDTH 609 0
DWIDTH 10 0
BBX 10 11 0 0
BITMAP
01A400
025400
000000
0A4000
257800
900700
800180
900080
600090
290280
07E900
ENDCHAR
STARTCHAR omacron
ENCODING 333
SWIDTH 487 0
DWIDTH 8 0
BBX 8 9 0 0
BITMAP
0690
0950
0BE0
2428
5008
8009
900D
6478
1BD0
ENDCHAR
STARTCHAR Obreve
ENCODING 334
SWIDTH 609 0
DWIDTH 10 0
BBX 10 10 0 0
BITMAP
016400
005000
0A4000
257800
900700
800180
900080
600090
290280
07E900
ENDCHAR
STARTCHAR obreve
ENCODING 335
SWIDTH 487 0
DWIDTH 8 0
BBX 8 9 0 0
BITMAP
0480
0600
0BE0
2428
5008
8009
900D
6478
1BD0
ENDCHAR
STARTCHAR Ohungarumlaut
ENCODING 336
SWIDTH 609 0
DWIDTH 10 0
BBX 10 11 0 0
BITMAP
015400
026000
000000
0A4000
257800
900700
800180
900080
600090
290280
07E900
ENDCHAR
STARTCHAR ohungarumlaut
ENCODING 337
SWIDTH 487 0
DWIDTH 8 0
BBX 8 9 0 0
BITMAP
0650
0980
0BE0
2428
5008
8009
900D
6478
1BD0
ENDCHAR
STARTCHAR OE
ENCODING 338
SWIDTH 848 0
DWIDTH 14 0
BBX 13 8 0 0
BITMAP
0A469540
25AD4040
902C0000
801D6A40
900D0000
60080000
29180000
06EABF80
ENDCHAR
STARTCHAR oe
ENCODING 339
SWIDTH 875 0
DWIDTH 14 0
BBX 14 9 0 -1
BITMAP
00006800
05924600
297A0200
600D0A00
800AB800
900D0000
602A0000
1BE1E590
00001940
ENDCHAR
STARTCHAR Racute
ENCODING 340
SWIDTH 579 0
DWIDTH 9 0
BBX 9 14 0 -1
BITMAP
001000
00A000
004000
6FE400
800A00
440240
080740
0EF900
0A0000
0B4000
059000
052400
010A00
000140
ENDCHAR
STARTCHAR racute
ENCODING 341
SWIDTH 346 0
DWIDTH 6 0
BBX 6 11 0 0
BITMAP
0100
0900
0400
0100
6AD0
9000
9000
5000
6000
3000
1400
ENDCHAR
STARTCHAR Rcommaaccent
ENCODING 342
SWIDTH 579 0
DWIDTH 9 0
BBX 9 15 0 -5
BITMAP
6FE400
800A00
440240
080740
0EF900
0A0000
0B4000
059000
052400
010A00
000140
004000
009000
009000
00C000
ENDCHAR
STARTCHAR rcommaaccent
ENCODING 343
SWIDTH 346 0
DWIDTH 6 0
BBX 6 13 0 -5
BITMAP
0100
6AD0
9000
9000
5000
6000
3000
1400
0000
0400
0900
0900
0C00
ENDCHAR
STARTCHAR Rcaron
ENCODING 344
SWIDTH 579 0
DWIDTH 9 0
BBX 9 14 0 -1
BITMAP
051400
01E000
000000
6FE400
800A00
440240
080740
0EF900
0A0000
0B4000
059000
052400
010A00
000140
ENDCHAR
STARTCHAR rcaron
ENCODING 345
SWIDTH 346 0
DWIDTH 6 0
BBX 6 10 0 0
BITMAP
2180
0B40
0100
6AD0
9000
9000
5000
6000
3000
1400
ENDCHAR
STARTCHAR Sacute
ENCODING 346
SWIDTH 627 0
DWIDTH 10 0
BBX 10 13 0 0
BITMAP
001000
009000
004000
01A400
0A4740
080000
0A0000
019000
002D00
400280
9000A0
240090
06AB80
ENDCHAR
STARTCHAR sacute
ENCODING 347
SWIDTH 514 0
DWIDTH 8 0
BBX 8 11 0 0
BITMAP
0050
0180
0100
0500
2A90
6060
2400
06A8
000A
600A
1BF8
ENDCHAR
STARTCHAR Scircumflex
ENCODING 348
SWIDTH 627 0
DWIDTH 10 0
BBX 10 14 0 0
BITMAP
005000
00B400
029C00
010400
01A400
0A4740
080000
0A0000
019000
002D00
400280
9000A0
240090
06AB80
ENDCHAR
STARTCHAR scircumflex
ENCODING 349
SWIDTH 514 0
DWIDTH 8 0
BBX 8 12 0 0
BITMAP
0040
02D0
0670
0410
0500
2A90
6060
2400
06A8
000A
600A
1BF8
ENDCHAR
STARTCHAR Scedilla
ENCODING 350
SWIDTH 627 0
DWIDTH 10 0
BBX 10 15 0 -5
BITMAP
01A400
0A4740
080000
0A0000
019000
002D00
400280
9000A0
240090
07AB80
020000
019000
001800
020800
01A400
ENDCHAR
STARTCHAR scedilla
ENCODING 351
SWIDTH 514 0
DWIDTH 8 0
BBX 8 13 0 -5
BITMAP
0500
2A90
6060
2400
06A8
000A
600A
1FF8
0800
0640
0060
0520
0290
ENDCHAR
STARTCHAR Scaron
ENCODING 352
SWIDTH 627 0
DWIDTH 10 0
BBX 10 12 0 0
BITMAP
014800
00B400
01A400
0A4740
080000
0A0000
019000
002D00
400280
9000A0
240090
06AB80
ENDCHAR
STARTCHAR scaron
ENCODING 353
SWIDTH 514 0
DWIDTH 8 0
BBX 8 10 0 0
BITMAP
0520
02D0
0500
2A90
6060
2400
06A8
000A
600A
1BF8
ENDCHAR
STARTCHAR Tcommaaccent
ENCODING 354
SWIDTH 581 0
DWIDTH 9 0
BBX 11 16 0 -5
BITMAP
540000
6AFFA4
002014
002000
002000
002000
002400
002400
001800
001800
000C00
000000
000400
001C00
000C00
001800
ENDCHAR
STARTCHAR tcommaaccent
ENCODING 355
SWIDTH 328 0
DWIDTH 5 0
BBX 5 15 0 -5
BITMAP
0C00
0C00
0C00
0C00
BF80
0C00
0C00
0D00
0900
0500
0000
0400
0C00
0800
0C00
ENDCHAR
STARTCHAR Tcaron
ENCODING 356
SWIDTH 581 0
DWIDTH 9 0
BBX 11 12 0 0
BITMAP
021400
55E000
6AFFA4
002014
002000
002000
002000
002400
002400
001800
001800
000C00
ENDCHAR
STARTCHAR tcaron
ENCODING 357
SWIDTH 431 0
DWIDTH 7 0
BBX 7 12 0 0
BITMAP
0010
0014
0C18
0C18
0C00
0C00
BF80
0C00
0C00
0D00
0900
0500
ENDCHAR
STARTCHAR Utilde
ENCODING 360
SWIDTH 571 0
DWIDTH 9 0
BBX 9 11 0 0
BITMAP
064500
08A800
240400
500900
900A00
900600
500200
600300
300740
186A80
0BD040
ENDCHAR
STARTCHAR utilde
ENCODING 361
SWIDTH 501 0
DWIDTH 8 0
BBX 8 11 0 0
BITMAP
0904
15B4
1000
9000
8018
8018
9018
602C
2469
0B86
0001
ENDCHAR
STARTCHAR Umacron
ENCODING 362
SWIDTH 571 0
DWIDTH 9 0
BBX 9 11 0 0
BITMAP
02A400
055400
200400
500900
900A00
900600
500200
600300
300740
186A80
0BD040
ENDCHAR
STARTCHAR umacron
ENCODING 363
SWIDTH 501 0
DWIDTH 8 0
BBX 8 10 0 0
BITMAP
0A90
1550
9000
8018
8018
9018
602C
2469
0B86
0001
ENDCHAR
STARTCHAR Ubreve
ENCODING 364
SWIDTH 571 0
DWIDTH 9 0
BBX 9 10 0 0
BITMAP
012000
219400
500900
900A00
900600
500200
600300
300740
186A80
0BD040
ENDCHAR
STARTCHAR ubreve
ENCODING 365
SWIDTH 501 0
DWIDTH 8 0
BBX 8 10 0 0
BITMAP
0480
0640
9000
8018
8018
9018
602C
2469
0B86
0001
ENDCHAR
STARTCHAR Uring
ENCODING 366
SWIDTH 571 0
DWIDTH 9 0
BBX 9 11 0 0
BITMAP
02A000
022000
214400
500900
900A00
900600
500200
600300
300740
186A80
0BD040
ENDCHAR
STARTCHAR uring
ENCODING 367
SWIDTH 501 0
DWIDTH 8 0
BBX 8 9 0 0
BITMAP
0680
9850
8158
8018
9018
602C
2469
0B86
0001
ENDCHAR
STARTCHAR Uhungarumlaut
ENCODING 368
SWIDTH 571 0
DWIDTH 9 0
BBX 9 11 0 0
BITMAP
026000
059000
200400
500900
900A00
900600
500200
600300
300740
186A80
0BD040
ENDCHAR
STARTCHAR uhungarumlaut
ENCODING 369
SWIDTH 501 0
DWIDTH 8 0
BBX 8 11 0 0
BITMAP
0260
0590
0000
9000
8018
8018
9018
602C
2469
0B86
0001
ENDCHAR
STARTCHAR Uogonek
ENCODING 370
SWIDTH 571 0
DWIDTH 9 0
BBX 10 11 0 -3
BITMAP
200500
500600
500600
500200
600300
200340
240780
0E69C0
069640
000900
000190
ENDCHAR
STARTCHAR uogonek
ENCODING 371
SWIDTH 501 0
DWIDTH 8 0
BBX 8 10 0 -2
BITMAP
4000
8014
8018
9018
601C
303C
1E95
011A
0020
0029
ENDCHAR
STARTCHAR Wcircumflex
ENCODING 372
SWIDTH 703 0
DWIDTH 11 0
BBX 11 14 0 0
BITMAP
001000
003800
009A00
014100
000000
000000
800010
C00030
800024
905018
90600C
60B008
369824
1A07D0
ENDCHAR
STARTCHAR wcircumflex
ENCODING 373
SWIDTH 656 0
DWIDTH 11 0
BBX 10 12 0 0
BITMAP
002000
007800
01DD00
010500
000000
100000
900040
802060
803030
907030
21E9A0
1F4690
ENDCHAR
STARTCHAR Ycircumflex
ENCODING 374
SWIDTH 403 0
DWIDTH 6 0
BBX 6 14 0 0
BITMAP
0200
0740
19D0
1050
8010
6020
2870
0BE0
00C0
0180
0140
0200
0200
0300
ENDCHAR
STARTCHAR ycircumflex
ENCODING 375
SWIDTH 487 0
DWIDTH 8 0
BBX 8 20 0 -8
BITMAP
0140
02D0
0AB0
0410
0000
4004
8008
9008
6009
200D
196D
0685
0006
0006
0005
0005
1009
340C
1E64
02A0
ENDCHAR
STARTCHAR Ydieresis
ENCODING 376
SWIDTH 403 0
DWIDTH 6 0
BBX 6 13 0 0
BITMAP
0440
28D0
0000
8010
6020
2870
0BE0
00C0
0180
0140
0200
0200
0300
ENDCHAR
STARTCHAR Zacute
ENCODING 377
SWIDTH 571 0
DWIDTH 9 0
BBX 9 14 0 0
BITMAP
001000
00D000
010000
000000
6A8000
406000
001400
001400
007900
0AFA00
008000
024000
060680
03FA40
ENDCHAR
STARTCHAR zacute
ENCODING 378
SWIDTH 459 0
DWIDTH 7 0
BBX 7 12 0 0
BITMAP
0140
0600
0400
0500
7A80
4090
0090
15D0
6B50
0D00
2C18
1FE4
ENDCHAR
STARTCHAR Zdotaccent
ENCODING 379
SWIDTH 571 0
DWIDTH 9 0
BBX 9 13 0 0
BITMAP
020000
010000
000000
6A8000
406000
001400
001400
007900
0AFA00
008000
024000
060680
03FA40
ENDCHAR
STARTCHAR zdotaccent
ENCODING 380
SWIDTH 459 0
DWIDTH 7 0
BBX 7 11 0 0
BITMAP
0200
0100
0500
7A80
4090
0090
15D0
6B50
0D00
2C18
1FE4
ENDCHAR
STARTCHAR Zcaron
ENCODING 381
SWIDTH 571 0
DWIDTH 9 0
BBX 9 13 0 0
BITMAP
092000
02D000
000000
6A8000
406000
001400
001400
007900
0AFA00
008000
024000
060680
03FA40
ENDCHAR
STARTCHAR zcaron
ENCODING 382
SWIDTH 459 0
DWIDTH 7 0
BBX 7 11 0 0
BITMAP
1480
0B40
0500
7A80
4090
0090
15D0
6B50
0D00
2C18
1FE4
ENDCHAR
STARTCHAR florin
ENCODING 402
SWIDTH 376 0
DWIDTH 6 0
BBX 9 16 -2 -4
BITMAP
000400
007B40
00C0C0
018000
018000
028000
028000
0AE900
008000
008000
018000
018000
018000
518000
258000
0B4000
ENDCHAR
STARTCHAR AEacute
ENCODING 508
SWIDTH 960 0
DWIDTH 15 0
BBX 15 14 0 0
BITMAP
00005000
00018000
0AA10000
14180000
2009FFA4
20028000
20038000
50028050
6552EA90
656A8000
20018000
20018000
30018054
2002BFE4
ENDCHAR
STARTCHAR aeacute
ENCODING 509
SWIDTH 881 0
DWIDTH 14 0
BBX 14 13 0 -1
BITMAP
00014000
00060000
00040000
00000000
0780A900
00724600
001E0200
1AAD0A00
641EA400
80060000
64174000
1BE9BA90
00000500
ENDCHAR
STARTCHAR Oslashacute
ENCODING 510
SWIDTH 609 0
DWIDTH 10 0
BBX 10 12 0 -1
BITMAP
006000
018000
000000
0A5800
257800
902700
806180
909080
60C090
2A8280
07E900
060000
ENDCHAR
STARTCHAR oslashacute
ENCODING 511
SWIDTH 487 0
DWIDTH 8 0
BBX 8 10 0 0
BITMAP
0040
0280
0200
0598
2978
606C
80D9
924D
6A68
1FE0
ENDCHAR
STARTCHAR Scommaaccent
ENCODING 536
SWIDTH 627 0
DWIDTH 10 0
BBX 10 15 0 -5
BITMAP
01A400
0A4740
080000
0A0000
019000
002D00
400280
9000A0
240090
06AB80
000000
004000
009000
009000
00C000
ENDCHAR
STARTCHAR scommaaccent
ENCODING 537
SWIDTH 514 0
DWIDTH 8 0
BBX 8 13 0 -5
BITMAP
0500
2A90
6060
2400
06A8
000A
600A
1BF8
0000
0000
0180
0180
0240
ENDCHAR
STARTCHAR circumflex
ENCODING 710
SWIDTH 375 0
DWIDTH 6 0
BBX 4 4 1 8
BITMAP
14
2D
AB
41
ENDCHAR
STARTCHAR caron
ENCODING 711
SWIDTH 375 0
DWIDTH 6 0
BBX 4 2 1 8
BITMAP
92
2D
ENDCHAR
STARTCHAR breve
ENCODING 728
SWIDTH 224 0
DWIDTH 4 0
BBX 4 2 0 6
BITMAP
59
24
ENDCHAR
STARTCHAR dotaccent
ENCODING 729
SWIDTH 152 0
DWIDTH 2 0
BBX 1 2 1 7
BITMAP
80
40
ENDCHAR
STARTCHAR ring
ENCODING 730
SWIDTH 333 0
DWIDTH 5 0
BBX 4 3 1 6
BITMAP
68
45
14
ENDCHAR
STARTCHAR ogonek
ENCODING 731
SWIDTH 254 0
DWIDTH 4 0
BBX 3 4 0 -3
BITMAP
14
60
64
14
ENDCHAR
STARTCHAR tilde
ENCODING 732
SWIDTH 402 0
DWIDTH 6 0
BBX 6 3 0 6
BITMAP
2410
9690
4000
ENDCHAR
STARTCHAR hungarumlaut
ENCODING 733
SWIDTH 264 0
DWIDTH 4 0
BBX 4 2 0 7
BITMAP
26
59
ENDCHAR
STARTCHAR Wgrave
ENCODING 7808
SWIDTH 703 0
DWIDTH 11 0
BBX 11 11 0 0
BITMAP
002000
001800
000000
800010
C00030
800024
905018
90600C
60B008
369824
1A07D0
ENDCHAR
STARTCHAR wgrave
ENCODING 7809
SWIDTH 656 0
DWIDTH 11 0
BBX 10 9 0 0
BITMAP
005000
002400
100000
900040
802060
803030
907030
21E9A0
1F4690
ENDCHAR
STARTCHAR Wacute
ENCODING 7810
SWIDTH 703 0
DWIDTH 11 0
BBX 11 11 0 0
BITMAP
001400
006000
004000
800010
C00030
800024
905018
90600C
60B008
369824
1A07D0
ENDCHAR
STARTCHAR wacute
ENCODING 7811
SWIDTH 656 0
DWIDTH 11 0
BBX 10 11 0 0
BITMAP
001400
006000
004000
000000
100000
900040
802060
803030
907030
21E9A0
1F4690
ENDCHAR
STARTCHAR Wdieresis
ENCODING 7812
SWIDTH 703 0
DWIDTH 11 0
BBX 11 11 0 0
BITMAP
004400
01CA00
000000
800010
C00030
800024
905018
90600C
60B008
369824
1A07D0
ENDCHAR
STARTCHAR wdieresis
ENCODING 7813
SWIDTH 656 0
DWIDTH 11 0
BBX 10 9 0 0
BITMAP
010400
029D00
100000
900040
802060
803030
907030
21E9A0
1F4690
ENDCHAR
STARTCHAR Ygrave
ENCODING 7922
SWIDTH 403 0
DWIDTH 6 0
BBX 6 13 0 0
BITMAP
0900
0240
0000
8010
6020
2870
0BE0
00C0
0180
0140
0200
0200
0300
ENDCHAR
STARTCHAR ygrave
ENCODING 7923
SWIDTH 487 0
DWIDTH 8 0
BBX 8 17 0 -8
BITMAP
0240
0080
4004
8008
9008
6009
200D
196D
0685
0006
0006
0005
0005
1009
340C
1E64
02A0
ENDCHAR
STARTCHAR endash
ENCODING 8211
SWIDTH 287 0
DWIDTH 5 0
BBX 5 1 0 4
BITMAP
BF40
ENDCHAR
STARTCHAR emdash
ENCODING 8212
SWIDTH 512 0
DWIDTH 8 0
BBX 8 1 0 4
BITMAP
6FFE
ENDCHAR
STARTCHAR quoteleft
ENCODING 8216
SWIDTH 102 0
DWIDTH 2 0
BBX 2 4 0 8
BITMAP
40
90
90
50
ENDCHAR
STARTCHAR quoteright
ENCODING 8217
SWIDTH 102 0
DWIDTH 2 0
BBX 2 4 0 8
BITMAP
40
90
90
50
ENDCHAR
STARTCHAR quotesinglbase
ENCODING 8218
SWIDTH 102 0
DWIDTH 2 0
BBX 2 4 0 -1
BITMAP
90
90
50
10
ENDCHAR
STARTCHAR quotedblleft
ENCODING 8220
SWIDTH 234 0
DWIDTH 4 0
BBX 4 5 0 8
BITMAP
04
88
99
59
29
ENDCHAR
STARTCHAR quotedblright
ENCODING 8221
SWIDTH 234 0
DWIDTH 4 0
BBX 4 5 0 8
BITMAP
04
88
99
59
29
ENDCHAR
STARTCHAR quotedblbase
ENCODING 8222
SWIDTH 341 0
DWIDTH 5 0
BBX 4 5 1 -2
BITMAP
48
88
99
69
15
ENDCHAR
STARTCHAR dagger
ENCODING 8224
SWIDTH 375 0
DWIDTH 6 0
BBX 6 10 0 0
BITMAP
0800
0800
0500
6FD0
5600
0200
0200
0200
0200
0200
ENDCHAR
STARTCHAR daggerdbl
ENCODING 8225
SWIDTH 375 0
DWIDTH 6 0
BBX 8 12 -1 0
BITMAP
0200
0300
0240
0140
6AA9
5585
5694
5594
0080
0080
0080
0080
ENDCHAR
STARTCHAR bullet
ENCODING 8226
SWIDTH 341 0
DWIDTH 5 0
BBX 4 4 1 2
BITMAP
14
7D
3D
14
ENDCHAR
STARTCHAR ellipsis
ENCODING 8230
SWIDTH 612 0
DWIDTH 10 0
BBX 10 3 0 0
BITMAP
24A1C0
78F2D0
34A1C0
ENDCHAR
STARTCHAR guilsinglleft
ENCODING 8249
SWIDTH 487 0
DWIDTH 8 0
BBX 7 7 0 0
BITMAP
0004
0064
0180
0900
7400
BA50
0568
ENDCHAR
STARTCHAR guilsinglright
ENCODING 8250
SWIDTH 403 0
DWIDTH 6 0
BBX 7 8 0 0
BITMAP
4000
7400
0BA0
0074
00A0
0640
1900
6000
ENDCHAR
STARTCHAR fraction
ENCODING 8260
SWIDTH 309 0
DWIDTH 5 0
BBX 5 12 0 0
BITMAP
0080
0180
0240
0300
0600
0900
0C00
1800
2400
3000
9000
8000
ENDCHAR
STARTCHAR Euro
ENCODING 8364
SWIDTH 741 0
DWIDTH 12 0
BBX 12 11 0 0
BITMAP
0002E4
000900
007900
BFEA40
014000
025640
6B9500
020000
020000
024059
00BFA4
ENDCHAR
STARTCHAR trademark
ENCODING 8482
SWIDTH 1116 0
DWIDTH 18 0
BBX 18 10 0 0
BITMAP
AAA9540080
0175AD0180
00200B0380
00200AEF80
0020091180
00200800C0
00240800C0
00140800D0
0018080090
000C040090
ENDCHAR
STARTCHAR minus
ENCODING 8722
SWIDTH 287 0
DWIDTH 5 0
BBX 5 1 0 4
BITMAP
BF40
ENDCHAR
STARTCHAR commaaccent
ENCODING 63171
SWIDTH 375 0
DWIDTH 6 0
BBX 1 4 2 -5
BITMAP
40
C0
C0
80
ENDCHAR
STARTCHAR fi
ENCODING 64257
SWIDTH 551 0
DWIDTH 9 0
BBX 7 12 0 0
BITMAP
0040
07B4
081C
1450
1400
2410
2820
AFF4
0D24
0628
0358
0198
ENDCHAR
STARTCHAR fl
ENCODING 64258
SWIDTH 723 0
DWIDTH 12 0
BBX 7 12 0 0
BITMAP
0040
07B4
080C
1420
1430
2430
2830
AFF0
0D30
0630
0370
01A0
ENDCHAR
STARTCHAR .notdef
ENCODING -1
SWIDTH 375 0
DWIDTH 6 0
BBX 1 1 0 0
BITMAP
00
ENDCHAR
STARTCHAR .null
ENCODING -1
SWIDTH 0 0
DWIDTH 0 0
BBX 1 1 0 0
BITMAP
00
ENDCHAR
STARTCHAR nonmarkingreturn
ENCODING -1
SWIDTH 375 0
DWIDTH 6 0
BBX 1 1 0 0
BITMAP
00
ENDCHAR
ENDFONT
